<svg xmlns="http://www.w3.org/2000/svg" width="210" height="74.741" viewBox="0 0 210 74.741">
  <g id="ecofylogo" transform="translate(30.54 -283.57)">
    <g id="Group_1" data-name="Group 1" transform="translate(-30.54 348.808)">
      <path id="Path_1" data-name="Path 1" d="M-29.83,513.682h-.71v-1.07h.71V512.2a1.888,1.888,0,0,1,.454-1.375,1.7,1.7,0,0,1,1.26-.446,3.4,3.4,0,0,1,1.038.15v1.079a2.282,2.282,0,0,0-.751-.138c-.486,0-.742.265-.742.846v.308h1.481v1.059H-28.55v4.487h-1.28Zm3.713-3.175h1.375v1.217h-1.375Zm.055,2.077h1.28v5.589h-1.28Z" transform="translate(30.54 -510.38)" fill="#2a1c4d"/>
      <path id="Path_2" data-name="Path 2" d="M-4.34,517.748h1.28v.857a2.026,2.026,0,0,1,1.746-.975,1.915,1.915,0,0,1,1.99,2.137v3.567H-.6v-3.175c0-.869-.434-1.366-1.2-1.366a1.242,1.242,0,0,0-1.26,1.386v3.155H-4.34Z" transform="translate(11.876 -515.545)" fill="#2a1c4d"/>
      <path id="Path_3" data-name="Path 3" d="M17.55,521.826v-.02c0-1.208.941-1.8,2.307-1.8a4.671,4.671,0,0,1,1.5.233V520.1c0-.794-.486-1.217-1.386-1.217a3.927,3.927,0,0,0-1.6.348l-.339-1.007a4.749,4.749,0,0,1,2.105-.454,2.5,2.5,0,0,1,1.852.624,2.327,2.327,0,0,1,.6,1.726v3.314H21.35v-.7a2.271,2.271,0,0,1-1.821.814A1.781,1.781,0,0,1,17.55,521.826Zm3.831-.4v-.38a3.564,3.564,0,0,0-1.271-.221c-.826,0-1.312.348-1.312.932v.02c0,.541.477.846,1.09.846C20.734,522.62,21.381,522.133,21.381,521.423Z" transform="translate(-3.718 -515.644)" fill="#2a1c4d"/>
      <path id="Path_4" data-name="Path 4" d="M40.8,517.748h1.28v.857a2.03,2.03,0,0,1,1.746-.975,1.915,1.915,0,0,1,1.99,2.137v3.567h-1.28v-3.175c0-.869-.434-1.366-1.2-1.366a1.242,1.242,0,0,0-1.26,1.386v3.155H40.8Z" transform="translate(-20.28 -515.545)" fill="#2a1c4d"/>
      <path id="Path_5" data-name="Path 5" d="M62.91,520.573v-.02a2.886,2.886,0,0,1,2.911-2.922,2.819,2.819,0,0,1,2.232.964l-.805.857a1.882,1.882,0,0,0-1.441-.7,1.686,1.686,0,0,0-1.619,1.778v.02a1.691,1.691,0,0,0,1.671,1.789,1.96,1.96,0,0,0,1.45-.687l.774.762a2.928,2.928,0,0,1-5.172-1.841Z" transform="translate(-36.031 -515.545)" fill="#2a1c4d"/>
      <path id="Path_6" data-name="Path 6" d="M83.73,520.571v-.02a2.773,2.773,0,0,1,2.73-2.911,2.7,2.7,0,0,1,2.678,3.006c0,.118-.012.233-.02.36h-4.1a1.558,1.558,0,0,0,1.608,1.418,2.025,2.025,0,0,0,1.513-.667l.751.667A2.825,2.825,0,0,1,86.6,523.47,2.79,2.79,0,0,1,83.73,520.571Zm4.139-.414a1.452,1.452,0,0,0-1.418-1.473A1.513,1.513,0,0,0,85,520.157Z" transform="translate(-50.862 -515.552)" fill="#2a1c4d"/>
      <path id="Path_7" data-name="Path 7" d="M118.03,513.682h-.71v-1.07h.71V512.2a1.888,1.888,0,0,1,.454-1.375,1.7,1.7,0,0,1,1.26-.446,3.4,3.4,0,0,1,1.038.15v1.079a2.282,2.282,0,0,0-.751-.138c-.486,0-.742.265-.742.846v.308h1.481v1.059H119.31v4.487h-1.28Z" transform="translate(-74.791 -510.38)" fill="#2a1c4d"/>
      <path id="Path_8" data-name="Path 8" d="M131.56,520.573v-.02a2.981,2.981,0,0,1,5.96-.023v.02a2.922,2.922,0,0,1-2.994,2.911A2.888,2.888,0,0,1,131.56,520.573Zm4.68,0v-.02a1.73,1.73,0,0,0-1.714-1.8,1.677,1.677,0,0,0-1.683,1.778v.02a1.724,1.724,0,0,0,1.7,1.789A1.673,1.673,0,0,0,136.24,520.573Z" transform="translate(-84.935 -515.545)" fill="#2a1c4d"/>
      <path id="Path_9" data-name="Path 9" d="M157.17,517.772h1.28v1.26a1.983,1.983,0,0,1,1.979-1.366v1.355h-.075c-1.122,0-1.9.731-1.9,2.212v2.129h-1.28Z" transform="translate(-103.179 -515.568)" fill="#2a1c4d"/>
      <path id="Path_10" data-name="Path 10" d="M182.85,521.826v-.02c0-1.208.941-1.8,2.307-1.8a4.671,4.671,0,0,1,1.5.233V520.1c0-.794-.486-1.217-1.386-1.217a3.927,3.927,0,0,0-1.6.348l-.339-1.007a4.749,4.749,0,0,1,2.105-.454,2.5,2.5,0,0,1,1.852.624,2.327,2.327,0,0,1,.6,1.726v3.314H186.65v-.7a2.271,2.271,0,0,1-1.821.814A1.782,1.782,0,0,1,182.85,521.826Zm3.831-.4v-.38a3.564,3.564,0,0,0-1.271-.221c-.825,0-1.312.348-1.312.932v.02c0,.541.477.846,1.09.846C186.037,522.62,186.681,522.133,186.681,521.423Z" transform="translate(-121.472 -515.644)" fill="#2a1c4d"/>
      <path id="Path_11" data-name="Path 11" d="M216.793,524.384l.477-.964a3.662,3.662,0,0,0,1.99.592,1.564,1.564,0,0,0,1.769-1.714v-.434a2.339,2.339,0,0,1-1.97,1.027,2.511,2.511,0,0,1-2.54-2.615v-.02a2.522,2.522,0,0,1,2.54-2.626,2.413,2.413,0,0,1,1.959.952v-.837h1.28v4.447a2.855,2.855,0,0,1-.71,2.105,3.145,3.145,0,0,1-2.3.751A4.779,4.779,0,0,1,216.793,524.384Zm4.245-4.119v-.02a1.56,1.56,0,0,0-1.639-1.536,1.51,1.51,0,0,0-1.588,1.536v.02A1.525,1.525,0,0,0,219.4,521.8,1.562,1.562,0,0,0,221.039,520.265Z" transform="translate(-145.458 -515.545)" fill="#2a1c4d"/>
      <path id="Path_12" data-name="Path 12" d="M242.56,517.772h1.28v1.26a1.983,1.983,0,0,1,1.979-1.366v1.355h-.075c-1.122,0-1.9.731-1.9,2.212v2.129h-1.28Z" transform="translate(-164.008 -515.568)" fill="#2a1c4d"/>
      <path id="Path_13" data-name="Path 13" d="M256.4,520.571v-.02a2.773,2.773,0,0,1,2.73-2.911,2.7,2.7,0,0,1,2.678,3.006c0,.118-.012.233-.02.36H257.68a1.558,1.558,0,0,0,1.608,1.418,2.025,2.025,0,0,0,1.513-.667l.751.667a2.825,2.825,0,0,1-2.287,1.047A2.788,2.788,0,0,1,256.4,520.571Zm4.136-.414a1.452,1.452,0,0,0-1.418-1.473,1.513,1.513,0,0,0-1.45,1.473Z" transform="translate(-173.867 -515.552)" fill="#2a1c4d"/>
      <path id="Path_14" data-name="Path 14" d="M278.99,520.571v-.02a2.773,2.773,0,0,1,2.73-2.911,2.7,2.7,0,0,1,2.678,3.006c0,.118-.012.233-.02.36H280.27a1.558,1.558,0,0,0,1.608,1.418,2.025,2.025,0,0,0,1.513-.667l.751.667a2.825,2.825,0,0,1-2.287,1.047A2.788,2.788,0,0,1,278.99,520.571Zm4.136-.414a1.452,1.452,0,0,0-1.418-1.473,1.513,1.513,0,0,0-1.45,1.473Z" transform="translate(-189.959 -515.552)" fill="#2a1c4d"/>
      <path id="Path_15" data-name="Path 15" d="M302.64,517.748h1.28v.857a2.03,2.03,0,0,1,1.746-.975,1.915,1.915,0,0,1,1.99,2.137v3.567h-1.28v-3.175c0-.869-.434-1.366-1.2-1.366a1.242,1.242,0,0,0-1.26,1.386v3.155h-1.28Z" transform="translate(-206.807 -515.545)" fill="#2a1c4d"/>
      <path id="Path_16" data-name="Path 16" d="M324.76,520.571v-.02a2.773,2.773,0,0,1,2.73-2.911,2.7,2.7,0,0,1,2.678,3.006c0,.118-.012.233-.02.36H326.04a1.558,1.558,0,0,0,1.608,1.418,2.025,2.025,0,0,0,1.513-.667l.751.667a2.825,2.825,0,0,1-2.287,1.047A2.788,2.788,0,0,1,324.76,520.571Zm4.136-.414a1.452,1.452,0,0,0-1.418-1.473,1.513,1.513,0,0,0-1.45,1.473Z" transform="translate(-222.564 -515.552)" fill="#2a1c4d"/>
      <path id="Path_17" data-name="Path 17" d="M348.41,517.772h1.28v1.26a1.983,1.983,0,0,1,1.979-1.366v1.355h-.075c-1.122,0-1.9.731-1.9,2.212v2.129h-1.28Z" transform="translate(-239.412 -515.568)" fill="#2a1c4d"/>
      <path id="Path_18" data-name="Path 18" d="M374.54,518.27v-2.942h-.71v-1.1h.71V512.69h1.28v1.536h1.5v1.1h-1.5v2.741a.609.609,0,0,0,.687.7,1.727,1.727,0,0,0,.794-.19v1.047a2.2,2.2,0,0,1-1.153.285A1.43,1.43,0,0,1,374.54,518.27Z" transform="translate(-257.52 -512.026)" fill="#2a1c4d"/>
      <path id="Path_19" data-name="Path 19" d="M389.25,520.573v-.02a2.981,2.981,0,0,1,5.96-.023v.02a2.922,2.922,0,0,1-2.994,2.911A2.888,2.888,0,0,1,389.25,520.573Zm4.68,0v-.02a1.73,1.73,0,0,0-1.714-1.8,1.677,1.677,0,0,0-1.683,1.778v.02a1.725,1.725,0,0,0,1.706,1.789A1.674,1.674,0,0,0,393.93,520.573Z" transform="translate(-268.505 -515.545)" fill="#2a1c4d"/>
      <path id="Path_20" data-name="Path 20" d="M414.853,517.748h1.28v.846a2,2,0,0,1,1.7-.964,1.77,1.77,0,0,1,1.671.984,2.251,2.251,0,0,1,1.884-.984,1.879,1.879,0,0,1,1.959,2.137v3.567h-1.28v-3.175c0-.889-.411-1.366-1.133-1.366-.7,0-1.2.486-1.2,1.386v3.155h-1.28v-3.187c0-.869-.423-1.355-1.133-1.355a1.22,1.22,0,0,0-1.2,1.386v3.155h-1.28v-5.586Z" transform="translate(-286.742 -515.545)" fill="#2a1c4d"/>
      <path id="Path_21" data-name="Path 21" d="M449.11,520.573v-.02a2.981,2.981,0,0,1,5.96-.023v.02a2.922,2.922,0,0,1-2.994,2.911A2.888,2.888,0,0,1,449.11,520.573Zm4.68,0v-.02a1.73,1.73,0,0,0-1.714-1.8,1.677,1.677,0,0,0-1.683,1.778v.02a1.724,1.724,0,0,0,1.7,1.789A1.675,1.675,0,0,0,453.79,520.573Z" transform="translate(-311.147 -515.545)" fill="#2a1c4d"/>
      <path id="Path_22" data-name="Path 22" d="M474.72,517.772H476v1.26a1.982,1.982,0,0,1,1.979-1.366v1.355H477.9c-1.122,0-1.9.731-1.9,2.212v2.129h-1.28Z" transform="translate(-329.391 -515.568)" fill="#2a1c4d"/>
      <path id="Path_23" data-name="Path 23" d="M490.28,517.772h1.28v1.26a1.983,1.983,0,0,1,1.979-1.366v1.355h-.075c-1.122,0-1.9.731-1.9,2.212v2.129h-1.28Z" transform="translate(-340.476 -515.568)" fill="#2a1c4d"/>
      <path id="Path_24" data-name="Path 24" d="M504.11,520.573v-.02a2.981,2.981,0,0,1,5.96-.023v.02a2.922,2.922,0,0,1-2.994,2.911A2.888,2.888,0,0,1,504.11,520.573Zm4.68,0v-.02a1.73,1.73,0,0,0-1.714-1.8,1.677,1.677,0,0,0-1.683,1.778v.02a1.724,1.724,0,0,0,1.7,1.789A1.673,1.673,0,0,0,508.79,520.573Z" transform="translate(-350.328 -515.545)" fill="#2a1c4d"/>
      <path id="Path_25" data-name="Path 25" d="M527.18,517.983h1.312l1.122,3.831,1.24-3.854h1.1l1.24,3.854,1.142-3.831h1.291l-1.832,5.632h-1.153l-1.248-3.82-1.26,3.82h-1.142Z" transform="translate(-366.762 -515.78)" fill="#2a1c4d"/>
    </g>
    <g id="Group_2" data-name="Group 2" transform="translate(-30.54 283.57)">
      <path id="Path_26" data-name="Path 26" d="M6.78,374.433a24.472,24.472,0,0,1-6.6,4.047A20.487,20.487,0,0,1-7.7,379.956a22.405,22.405,0,0,1-8.781-1.749,23.093,23.093,0,0,1-7.271-4.8,23.072,23.072,0,0,1-4.956-7.151,21.385,21.385,0,0,1-1.835-8.833,22.909,22.909,0,0,1,.754-5.9,22.912,22.912,0,0,1,2.143-5.333,22.188,22.188,0,0,1,3.38-4.562,21.451,21.451,0,0,1,4.441-3.549A21.62,21.62,0,0,1-14.5,335.8a22.225,22.225,0,0,1,6.055-.805,21.168,21.168,0,0,1,5.146.636,22.578,22.578,0,0,1,4.818,1.8,22.734,22.734,0,0,1,4.271,2.83,20.509,20.509,0,0,1,3.5,3.756,20.249,20.249,0,0,1,3.017,6.21,26.608,26.608,0,0,1,.961,7.375,13.319,13.319,0,0,1-.086,1.663,2.082,2.082,0,0,1-.429,1.081,2,2,0,0,1-1.03.6,7.566,7.566,0,0,1-1.921.19H-20.628a11.607,11.607,0,0,0,1.7,4.372,13.16,13.16,0,0,0,2.965,3.224,12.533,12.533,0,0,0,3.739,1.99,12.834,12.834,0,0,0,4.047.67,14.077,14.077,0,0,0,2.968-.308,15.513,15.513,0,0,0,2.658-.823,14.679,14.679,0,0,0,2.281-1.182,13.6,13.6,0,0,0,1.835-1.389.031.031,0,0,1,.035-.035,4.953,4.953,0,0,1,.788-.6,1.518,1.518,0,0,1,.788-.224,1.535,1.535,0,0,1,.7.207,2.463,2.463,0,0,1,.771.687c.618.754,1.142,1.383,1.579,1.887s.788.926,1.064,1.268a5.438,5.438,0,0,1,.6.892,1.671,1.671,0,0,1,.19.754A2.567,2.567,0,0,1,6.78,374.433ZM-8.45,343.492a10.966,10.966,0,0,0-3.943.736,13.218,13.218,0,0,0-3.515,2.008,13.736,13.736,0,0,0-2.779,2.986,12.21,12.21,0,0,0-1.732,3.7H3.867A13.239,13.239,0,0,0,2.2,349.1a12.314,12.314,0,0,0-2.692-2.986,11.893,11.893,0,0,0-3.6-1.939A13.528,13.528,0,0,0-8.45,343.492Z" transform="translate(30.54 -320.2)" fill="#2a1c4d"/>
      <path id="Path_27" data-name="Path 27" d="M174.4,367.9a2.81,2.81,0,0,1,1.648-.549,1.3,1.3,0,0,1,1,.618l.823,1.133,2.436,3.463a2.229,2.229,0,0,1,.273.5,1.258,1.258,0,0,1,.1.463,1.444,1.444,0,0,1-.377.978,5.962,5.962,0,0,1-1,.874,27.316,27.316,0,0,1-6.293,3.431,20.479,20.479,0,0,1-7.427,1.3,21.71,21.71,0,0,1-5.917-.805,22.808,22.808,0,0,1-13.444-10.306,22.343,22.343,0,0,1,0-22.775,22.725,22.725,0,0,1,13.444-10.306,21.709,21.709,0,0,1,5.917-.805,22.033,22.033,0,0,1,7.2,1.165,21.608,21.608,0,0,1,6.037,3.155l-.035-.035a10.123,10.123,0,0,0,.943.84,1.331,1.331,0,0,1,.463,1.116c0,.138-.006.3-.017.48a.974.974,0,0,1-.19.515l-2.813,4.289a1.887,1.887,0,0,1-1.51,1.03,2.155,2.155,0,0,1-1.3-.584,14.694,14.694,0,0,0-4.081-2.4,12.887,12.887,0,0,0-4.8-.926,11.547,11.547,0,0,0-5.025,1.116,13.573,13.573,0,0,0-4.133,3.017,14.313,14.313,0,0,0-2.813,4.424,14.133,14.133,0,0,0,2.8,15.006,13.285,13.285,0,0,0,4.133,2.934,12.023,12.023,0,0,0,5.042,1.081,11.614,11.614,0,0,0,5.042-1.012A20,20,0,0,0,174.4,367.9Z" transform="translate(-93.17 -320.293)" fill="#2a1c4d"/>
      <path id="Path_28" data-name="Path 28" d="M293.24,357.513a22.368,22.368,0,0,1,6.613-15.966,22.625,22.625,0,0,1,4.559-3.5,22.959,22.959,0,0,1,5.364-2.264,22.548,22.548,0,0,1,11.945,0,22.6,22.6,0,0,1,5.364,2.264,22.844,22.844,0,0,1,4.542,3.5,22.483,22.483,0,0,1,3.529,27.337,23.041,23.041,0,0,1-3.529,4.545,22.362,22.362,0,0,1-9.906,5.779,22.549,22.549,0,0,1-11.945,0,23.011,23.011,0,0,1-5.364-2.264,22.3,22.3,0,0,1-4.559-3.515,22.909,22.909,0,0,1-3.529-4.545,22.241,22.241,0,0,1-3.083-11.37Zm9.673,0a14.11,14.11,0,0,0,.961,5.2,13.155,13.155,0,0,0,2.675,4.271,12.753,12.753,0,0,0,4.064,2.882,12.274,12.274,0,0,0,5.128,1.064,11.875,11.875,0,0,0,5.025-1.064,12.387,12.387,0,0,0,4-2.882,13.117,13.117,0,0,0,2.623-4.271,14.741,14.741,0,0,0,0-10.378,13.859,13.859,0,0,0-2.623-4.34,12.833,12.833,0,0,0-4-2.986,11.45,11.45,0,0,0-5.025-1.116,11.79,11.79,0,0,0-5.128,1.116,12.967,12.967,0,0,0-4.064,2.986,13.61,13.61,0,0,0-2.675,4.34A14.153,14.153,0,0,0,302.913,357.513Z" transform="translate(-200.111 -320.193)" fill="#2a1c4d"/>
      <path id="Path_29" data-name="Path 29" d="M473.336,299.177a18.755,18.755,0,0,1,.926-5.882,15.2,15.2,0,0,1,2.709-4.99,13.225,13.225,0,0,1,4.375-3.449,13.051,13.051,0,0,1,5.882-1.286h.342a2,2,0,0,1,1.545.6,2.324,2.324,0,0,1,.549,1.628v4.734a2.66,2.66,0,0,1-.532,1.68,1.744,1.744,0,0,1-1.458.687,4.446,4.446,0,0,0-1.3.256,5.128,5.128,0,0,0-1.51.805,4.9,4.9,0,0,0-1.234,1.407,3.867,3.867,0,0,0-.515,2.025v5.557h4.973a2.183,2.183,0,0,1,1.545.515,2.27,2.27,0,0,1,.549,1.714v4.22a2.593,2.593,0,0,1-.549,1.8,1.987,1.987,0,0,1-1.545.6h-4.973v28.573a1.99,1.99,0,0,1-.719,1.663,2.5,2.5,0,0,1-1.579.567H475.5a2.022,2.022,0,0,1-1.6-.636,2.311,2.311,0,0,1-.567-1.6V311.8h-3.4a2.211,2.211,0,0,1-1.611-.6,2.406,2.406,0,0,1-.618-1.8V305.18a2.118,2.118,0,0,1,.618-1.714,2.438,2.438,0,0,1,1.611-.515h3.4Z" transform="translate(-324.397 -283.57)" fill="#2a1c4d"/>
      <path id="Path_30" data-name="Path 30" d="M578.242,393.59a2.565,2.565,0,0,1-.788,1.113,2.054,2.054,0,0,1-1.268.36h-6.449a2.006,2.006,0,0,1-1.32-.325,1.04,1.04,0,0,1-.36-.805,3.924,3.924,0,0,1,.086-.687,1.41,1.41,0,0,1,.155-.515l6.037-15.4-15.3-37.286a.141.141,0,0,0-.035-.1v-.308a2.037,2.037,0,0,1-.173-.857,1.149,1.149,0,0,1,.411-.926,1.96,1.96,0,0,1,1.268-.342h6.21a2.02,2.02,0,0,1,2.025,1.441l.618,1.611q.686,1.92,1.545,4.306t1.783,4.921q.928,2.537,1.87,5.094t1.783,4.8q.842,2.248,1.527,4.047t1.1,2.83l10.153-27.613a2.593,2.593,0,0,1,.788-1.116,2.049,2.049,0,0,1,1.268-.36h6.449a2.012,2.012,0,0,1,1.32.325,1.04,1.04,0,0,1,.359.805,3.93,3.93,0,0,1-.086.687,1.406,1.406,0,0,1-.155.515Z" transform="translate(-389.308 -321.967)" fill="#2a1c4d"/>
    </g>
  </g>
</svg>
