<svg width="2390" height="597" viewBox="0 0 2390 597" fill="none" xmlns="http://www.w3.org/2000/svg">
<path d="M717.149 294.659C717.149 311.205 723.544 319.478 736.335 319.478C741.498 319.478 746.133 318.832 750.24 317.541V343.592C748.011 344.179 745.018 344.707 741.263 345.176C737.626 345.763 733.753 346.056 729.646 346.056C723.896 346.056 718.499 345.117 713.453 343.24C708.407 341.362 704.007 338.487 700.252 334.615C696.614 330.743 693.68 325.932 691.451 320.182C689.339 314.314 688.282 307.509 688.282 299.764V78.1592H717.149V294.659ZM926.609 262.096H799.349C799.818 282.162 805.216 297.652 815.542 308.565C825.869 319.478 840.067 324.934 858.138 324.934C878.439 324.934 897.097 318.246 914.111 304.868V331.975C898.27 343.475 877.324 349.224 851.274 349.224C825.81 349.224 805.803 341.069 791.252 324.758C776.701 308.33 769.426 285.272 769.426 255.584C769.426 227.538 777.347 204.715 793.188 187.113C809.147 169.394 828.92 160.535 852.506 160.535C876.092 160.535 894.339 168.162 907.247 183.417C920.155 198.672 926.609 219.852 926.609 246.959V262.096ZM897.038 237.63C896.921 220.967 892.872 208.001 884.893 198.73C877.031 189.46 866.059 184.825 851.978 184.825C838.366 184.825 826.807 189.695 817.302 199.434C807.798 209.174 801.93 221.906 799.701 237.63H897.038ZM1124.28 330.567C1124.28 396.749 1092.59 429.84 1029.23 429.84C1006.93 429.84 987.452 425.615 970.789 417.167V388.3C991.089 399.565 1010.45 405.198 1028.87 405.198C1073.23 405.198 1095.41 381.611 1095.41 334.439V314.725H1094.7C1080.98 337.725 1060.32 349.224 1032.75 349.224C1010.33 349.224 992.263 341.245 978.533 325.286C964.922 309.21 958.116 287.677 958.116 260.688C958.116 230.061 965.45 205.712 980.118 187.641C994.903 169.57 1015.09 160.535 1040.67 160.535C1064.96 160.535 1082.97 170.274 1094.7 189.754H1095.41V164.759H1124.28V330.567ZM1095.41 263.504V236.926C1095.41 222.61 1090.54 210.347 1080.8 200.139C1071.18 189.93 1059.15 184.825 1044.72 184.825C1026.88 184.825 1012.92 191.338 1002.82 204.363C992.732 217.271 987.686 235.4 987.686 258.752C987.686 278.818 992.497 294.894 1002.12 306.98C1011.86 318.95 1024.71 324.934 1040.67 324.934C1056.86 324.934 1070 319.184 1080.09 307.685C1090.3 296.185 1095.41 281.458 1095.41 263.504ZM1357.85 343.24C1351.04 346.995 1342.07 348.872 1330.92 348.872C1299.35 348.872 1283.57 331.271 1283.57 296.067V189.402H1252.59V164.759H1283.57V120.755L1312.44 111.426V164.759H1357.85V189.402H1312.44V290.963C1312.44 303.049 1314.49 311.674 1318.6 316.837C1322.7 322.001 1329.51 324.582 1339.02 324.582C1346.29 324.582 1352.57 322.587 1357.85 318.598V343.24ZM1550.23 427.904H1521.37V314.021H1520.66C1508.11 337.49 1487.57 349.224 1459.06 349.224C1436.41 349.224 1418.22 341.186 1404.49 325.11C1390.88 308.917 1384.08 286.915 1384.08 259.104C1384.08 229.181 1391.59 205.302 1406.61 187.465C1421.63 169.512 1441.81 160.535 1467.15 160.535C1491.8 160.535 1509.63 170.274 1520.66 189.754H1521.37V164.759H1550.23V427.904ZM1521.37 263.856V237.63C1521.37 222.845 1516.5 210.347 1506.76 200.139C1497.14 189.93 1484.87 184.825 1469.97 184.825C1452.6 184.825 1438.88 191.279 1428.78 204.187C1418.69 216.977 1413.65 235.048 1413.65 258.4C1413.65 279.17 1418.52 295.481 1428.26 307.332C1437.99 319.067 1450.55 324.934 1465.92 324.934C1482.82 324.934 1496.26 319.184 1506.23 307.685C1516.32 296.067 1521.37 281.458 1521.37 263.856ZM1754.41 345H1725.55V316.485H1724.84C1712.87 338.311 1694.33 349.224 1669.22 349.224C1626.27 349.224 1604.8 323.643 1604.8 272.481V164.759H1633.49V267.905C1633.49 305.924 1648.04 324.934 1677.14 324.934C1691.22 324.934 1702.78 319.771 1711.82 309.445C1720.97 299.001 1725.55 285.389 1725.55 268.609V164.759H1754.41V345ZM1957.71 262.096H1830.45C1830.92 282.162 1836.32 297.652 1846.65 308.565C1856.97 319.478 1871.17 324.934 1889.24 324.934C1909.54 324.934 1928.2 318.246 1945.22 304.868V331.975C1929.37 343.475 1908.43 349.224 1882.38 349.224C1856.91 349.224 1836.91 341.069 1822.36 324.758C1807.81 308.33 1800.53 285.272 1800.53 255.584C1800.53 227.538 1808.45 204.715 1824.29 187.113C1840.25 169.394 1860.02 160.535 1883.61 160.535C1907.2 160.535 1925.44 168.162 1938.35 183.417C1951.26 198.672 1957.71 219.852 1957.71 246.959V262.096ZM1928.14 237.63C1928.02 220.967 1923.98 208.001 1916 198.73C1908.13 189.46 1897.16 184.825 1883.08 184.825C1869.47 184.825 1857.91 189.695 1848.41 199.434C1838.9 209.174 1833.03 221.906 1830.8 237.63H1928.14ZM1990.63 338.487V307.509C2006.35 319.126 2023.66 324.934 2042.55 324.934C2067.9 324.934 2080.57 316.485 2080.57 299.588C2080.57 294.777 2079.46 290.728 2077.23 287.443C2075.12 284.04 2072.18 281.047 2068.43 278.466C2064.79 275.884 2060.45 273.596 2055.4 271.601C2050.47 269.489 2045.13 267.318 2039.38 265.089C2031.4 261.92 2024.36 258.752 2018.26 255.584C2012.28 252.298 2007.23 248.66 2003.12 244.671C1999.14 240.564 1996.08 235.929 1993.97 230.765C1991.98 225.602 1990.98 219.559 1990.98 212.636C1990.98 204.187 1992.92 196.736 1996.79 190.282C2000.66 183.71 2005.82 178.254 2012.28 173.912C2018.73 169.453 2026.07 166.109 2034.28 163.879C2042.61 161.65 2051.18 160.535 2059.98 160.535C2075.58 160.535 2089.55 163.234 2101.87 168.632V197.85C2088.61 189.167 2073.36 184.825 2056.11 184.825C2050.71 184.825 2045.84 185.47 2041.5 186.761C2037.15 187.935 2033.4 189.636 2030.23 191.866C2027.18 194.095 2024.77 196.794 2023.01 199.963C2021.37 203.013 2020.55 206.416 2020.55 210.171C2020.55 214.865 2021.37 218.796 2023.01 221.965C2024.77 225.133 2027.3 227.949 2030.58 230.413C2033.87 232.878 2037.86 235.107 2042.55 237.102C2047.25 239.097 2052.59 241.268 2058.57 243.615C2066.55 246.666 2073.71 249.834 2080.04 253.119C2086.38 256.288 2091.78 259.925 2096.24 264.032C2100.7 268.022 2104.1 272.657 2106.45 277.938C2108.91 283.218 2110.14 289.496 2110.14 296.772C2110.14 305.69 2108.15 313.434 2104.16 320.006C2100.29 326.577 2095.06 332.033 2088.49 336.375C2081.92 340.717 2074.35 343.944 2065.79 346.056C2057.22 348.168 2048.24 349.224 2038.86 349.224C2020.32 349.224 2004.24 345.645 1990.63 338.487ZM2238.28 343.24C2231.48 346.995 2222.5 348.872 2211.35 348.872C2179.79 348.872 2164 331.271 2164 296.067V189.402H2133.02V164.759H2164V120.755L2192.87 111.426V164.759H2238.28V189.402H2192.87V290.963C2192.87 303.049 2194.92 311.674 2199.03 316.837C2203.14 322.001 2209.94 324.582 2219.45 324.582C2226.72 324.582 2233 322.587 2238.28 318.598V343.24Z" fill="#85ACDB"/>
<path d="M1195.56 118.995C1190.4 118.995 1186 117.235 1182.36 113.714C1178.72 110.194 1176.9 105.735 1176.9 100.337C1176.9 94.9394 1178.72 90.4803 1182.36 86.96C1186 83.3223 1190.4 81.5035 1195.56 81.5035C1200.84 81.5035 1205.3 83.3223 1208.94 86.96C1212.69 90.4803 1214.57 94.9394 1214.57 100.337C1214.57 105.5 1212.69 109.901 1208.94 113.538C1205.3 117.176 1200.84 118.995 1195.56 118.995ZM1209.64 294.659C1209.64 311.205 1216.04 319.478 1228.83 319.478C1233.99 319.478 1238.63 318.832 1242.73 317.541V343.592C1240.5 344.179 1237.51 344.707 1233.76 345.176C1230.12 345.763 1226.25 346.056 1222.14 346.056C1216.39 346.056 1210.99 345.117 1205.95 343.24C1200.9 341.362 1196.5 338.487 1192.75 334.615C1189.11 330.743 1186.17 325.932 1183.94 320.182C1181.83 314.314 1180.78 307.509 1180.78 299.764V164.759H1209.64V294.659Z" fill="#ED7E1F"/>
<path d="M2280.87 90.1699H2265.78V132H2259.63V90.1699H2244.58V85.0781H2280.87V90.1699ZM2295.82 85.0781L2311.16 123.363L2326.5 85.0781H2334.52V132H2328.34V113.728L2328.92 94.0049L2313.51 132H2308.77L2293.4 94.1016L2294.01 113.728V132H2287.83V85.0781H2295.82Z" fill="#2B2B2B"/>
<path d="M1243.51 529.059H1272.35V500.232H1243.51V529.059Z" fill="#ED7E1F"/>
<path d="M1673.25 529.059H1702.11V500.232H1673.25V529.059Z" fill="#ED7E1F"/>
<path d="M681.58 542V475.169H691.062V542H681.58ZM708.538 542V492.96H717.434V502.172C722.13 495.308 727.88 491.877 734.683 491.877C738.958 491.877 742.345 493.231 744.844 495.941C747.372 498.62 748.637 502.232 748.637 506.778V542H739.741V509.668C739.741 506.026 739.199 503.437 738.115 501.901C737.062 500.336 735.301 499.553 732.832 499.553C727.383 499.553 722.25 503.12 717.434 510.255V542H708.538ZM767.647 542V499.643H760.693V492.96H767.647V487.09C767.647 475.41 772.976 469.569 783.633 469.569C786.613 469.569 790 470.066 793.793 471.06V478.104C789.789 476.87 786.583 476.252 784.175 476.252C781.255 476.252 779.253 476.96 778.169 478.375C777.115 479.76 776.588 482.349 776.588 486.142V492.96H788.826V499.643H776.588V542H767.647ZM819.532 543.129C812.337 543.129 806.632 540.826 802.418 536.22C798.233 531.614 796.141 525.367 796.141 517.48C796.141 509.593 798.233 503.361 802.418 498.785C806.632 494.18 812.337 491.877 819.532 491.877C826.727 491.877 832.417 494.18 836.601 498.785C840.816 503.361 842.923 509.593 842.923 517.48C842.923 525.367 840.816 531.614 836.601 536.22C832.417 540.826 826.727 543.129 819.532 543.129ZM819.532 536.446C823.957 536.446 827.389 534.79 829.828 531.479C832.266 528.167 833.485 523.501 833.485 517.48C833.485 511.459 832.266 506.808 829.828 503.527C827.389 500.215 823.957 498.56 819.532 498.56C815.107 498.56 811.675 500.215 809.236 503.527C806.828 506.808 805.624 511.459 805.624 517.48C805.624 523.501 806.828 528.167 809.236 531.479C811.675 534.79 815.107 536.446 819.532 536.446ZM856.831 542V492.96H865.727V502.172C869.249 495.308 874.367 491.877 881.08 491.877C881.983 491.877 882.931 491.952 883.925 492.102V500.411C882.389 499.899 881.035 499.643 879.861 499.643C874.231 499.643 869.52 502.985 865.727 509.668V542H856.831ZM894.672 542V492.96H903.568V502.172C907.903 495.308 913.472 491.877 920.276 491.877C926.838 491.877 931.309 495.308 933.687 502.172C937.902 495.278 943.381 491.831 950.124 491.831C954.429 491.831 957.77 493.111 960.149 495.67C962.557 498.198 963.761 501.751 963.761 506.327V542H954.82V507.726C954.82 502.127 952.607 499.327 948.182 499.327C943.576 499.327 938.744 502.594 933.687 509.126V542H924.746V507.726C924.746 502.097 922.488 499.282 917.973 499.282C913.487 499.282 908.685 502.564 903.568 509.126V542H894.672ZM1006.3 535.768C1000.97 540.675 995.837 543.129 990.9 543.129C986.836 543.129 983.464 541.865 980.785 539.336C978.106 536.777 976.766 533.556 976.766 529.672C976.766 524.314 979.009 520.205 983.494 517.345C988.01 514.455 994.482 513.01 1002.91 513.01H1004.99V507.094C1004.99 501.405 1002.02 498.56 996.093 498.56C991.487 498.56 986.46 500.005 981.011 502.895V495.534C987.001 493.096 992.646 491.877 997.944 491.877C1003.39 491.877 1007.41 493.126 1010 495.625C1012.59 498.093 1013.88 501.916 1013.88 507.094V529.311C1013.88 534.399 1015.45 536.942 1018.58 536.942C1018.97 536.942 1019.54 536.882 1020.3 536.762L1020.93 541.684C1018.91 542.647 1016.68 543.129 1014.25 543.129C1010.09 543.129 1007.44 540.675 1006.3 535.768ZM1004.99 530.937V518.248L1002.14 518.157C997.207 518.157 993.218 519.076 990.177 520.912C987.167 522.748 985.662 525.187 985.662 528.227C985.662 530.365 986.414 532.171 987.92 533.646C989.425 535.121 991.261 535.859 993.429 535.859C997.132 535.859 1000.98 534.218 1004.99 530.937ZM1053.98 542C1051.24 542.753 1048.87 543.129 1046.85 543.129C1042.33 543.129 1038.81 541.834 1036.28 539.245C1033.75 536.657 1032.49 533.059 1032.49 528.453V499.643H1026.35V492.96H1032.49V484.065L1041.38 483.207V492.96H1054.21V499.643H1041.38V526.827C1041.38 533.24 1044.15 536.446 1049.69 536.446C1050.87 536.446 1052.3 536.25 1053.98 535.859V542ZM1066.72 542V492.96H1075.61V542H1066.72ZM1066.72 484.065V475.169H1075.61V484.065H1066.72ZM1112.96 543.129C1105.76 543.129 1100.06 540.826 1095.84 536.22C1091.66 531.614 1089.57 525.367 1089.57 517.48C1089.57 509.593 1091.66 503.361 1095.84 498.785C1100.06 494.18 1105.76 491.877 1112.96 491.877C1120.15 491.877 1125.84 494.18 1130.03 498.785C1134.24 503.361 1136.35 509.593 1136.35 517.48C1136.35 525.367 1134.24 531.614 1130.03 536.22C1125.84 540.826 1120.15 543.129 1112.96 543.129ZM1112.96 536.446C1117.38 536.446 1120.81 534.79 1123.25 531.479C1125.69 528.167 1126.91 523.501 1126.91 517.48C1126.91 511.459 1125.69 506.808 1123.25 503.527C1120.81 500.215 1117.38 498.56 1112.96 498.56C1108.53 498.56 1105.1 500.215 1102.66 503.527C1100.25 506.808 1099.05 511.459 1099.05 517.48C1099.05 523.501 1100.25 528.167 1102.66 531.479C1105.1 534.79 1108.53 536.446 1112.96 536.446ZM1150.26 542V492.96H1159.15V502.172C1163.85 495.308 1169.6 491.877 1176.4 491.877C1180.68 491.877 1184.06 493.231 1186.56 495.941C1189.09 498.62 1190.36 502.232 1190.36 506.778V542H1181.46V509.668C1181.46 506.026 1180.92 503.437 1179.83 501.901C1178.78 500.336 1177.02 499.553 1174.55 499.553C1169.1 499.553 1163.97 503.12 1159.15 510.255V542H1150.26ZM1324.42 542V475.169H1333.91V542H1324.42ZM1351.38 542V492.96H1360.28V502.172C1364.97 495.308 1370.72 491.877 1377.53 491.877C1381.8 491.877 1385.19 493.231 1387.69 495.941C1390.22 498.62 1391.48 502.232 1391.48 506.778V542H1382.59V509.668C1382.59 506.026 1382.04 503.437 1380.96 501.901C1379.91 500.336 1378.14 499.553 1375.68 499.553C1370.23 499.553 1365.09 503.12 1360.28 510.255V542H1351.38ZM1407.01 540.284V532.111C1412.82 535.001 1417.88 536.446 1422.19 536.446C1424.75 536.446 1426.87 535.753 1428.55 534.369C1430.24 532.984 1431.08 531.253 1431.08 529.176C1431.08 526.135 1428.72 523.621 1423.99 521.635L1418.8 519.422C1411.12 516.231 1407.29 511.64 1407.29 505.649C1407.29 501.374 1408.79 498.018 1411.8 495.579C1414.84 493.111 1419 491.877 1424.26 491.877C1427 491.877 1430.39 492.253 1434.42 493.005L1436.28 493.367V500.772C1431.31 499.297 1427.35 498.56 1424.4 498.56C1421.81 498.56 1419.73 499.132 1418.17 500.276C1416.63 501.389 1415.87 502.895 1415.87 504.791C1415.87 507.471 1418.03 509.728 1422.37 511.565L1426.66 513.371C1431.5 515.418 1434.94 517.586 1436.95 519.873C1438.97 522.131 1439.98 524.961 1439.98 528.363C1439.98 532.668 1438.28 536.205 1434.88 538.975C1431.47 541.744 1427.12 543.129 1421.83 543.129C1417.76 543.129 1412.82 542.181 1407.01 540.284ZM1455.96 542V492.96H1464.86V542H1455.96ZM1455.96 484.065V475.169H1464.86V484.065H1455.96ZM1482.88 558.301L1483.92 550.58C1489.06 553.018 1494.15 554.237 1499.18 554.237C1509.17 554.237 1514.17 548.924 1514.17 538.297V530.575C1512.64 533.827 1510.44 536.355 1507.58 538.162C1504.75 539.968 1501.59 540.871 1498.09 540.871C1492.16 540.871 1487.47 538.749 1484.01 534.504C1480.54 530.229 1478.81 524.449 1478.81 517.164C1478.81 509.698 1480.79 503.617 1484.73 498.921C1488.67 494.225 1493.78 491.877 1500.04 491.877C1505.52 491.877 1510.23 494.104 1514.17 498.56V492.96H1523.11V528.634C1523.11 536.31 1522.71 541.985 1521.89 545.658C1521.11 549.36 1519.62 552.386 1517.42 554.734C1513.54 558.858 1507.47 560.92 1499.22 560.92C1493.56 560.92 1488.12 560.047 1482.88 558.301ZM1514.17 525.021V504.656C1510.26 500.592 1506 498.56 1501.39 498.56C1497.3 498.56 1494.09 500.2 1491.77 503.482C1489.46 506.763 1488.3 511.309 1488.3 517.119C1488.3 527.776 1492.07 533.104 1499.63 533.104C1504.78 533.104 1509.62 530.41 1514.17 525.021ZM1540.41 542V470.698H1549.3V502.172C1554 495.308 1559.75 491.877 1566.55 491.877C1570.83 491.877 1574.21 493.231 1576.71 495.941C1579.24 498.62 1580.51 502.232 1580.51 506.778V542H1571.61V509.668C1571.61 506.026 1571.07 503.437 1569.98 501.901C1568.93 500.336 1567.17 499.553 1564.7 499.553C1559.25 499.553 1554.12 503.12 1549.3 510.255V542H1540.41ZM1619.7 542C1616.96 542.753 1614.58 543.129 1612.57 543.129C1608.05 543.129 1604.53 541.834 1602 539.245C1599.47 536.657 1598.21 533.059 1598.21 528.453V499.643H1592.07V492.96H1598.21V484.065L1607.1 483.207V492.96H1619.93V499.643H1607.1V526.827C1607.1 533.24 1609.87 536.446 1615.41 536.446C1616.58 536.446 1618.01 536.25 1619.7 535.859V542ZM1749.16 542V475.169H1758.65V542H1749.16ZM1776.12 542V492.96H1785.02V502.172C1789.71 495.308 1795.46 491.877 1802.27 491.877C1806.54 491.877 1809.93 493.231 1812.43 495.941C1814.96 498.62 1816.22 502.232 1816.22 506.778V542H1807.33V509.668C1807.33 506.026 1806.78 503.437 1805.7 501.901C1804.65 500.336 1802.88 499.553 1800.42 499.553C1794.97 499.553 1789.83 503.12 1785.02 510.255V542H1776.12ZM1855.42 542C1852.68 542.753 1850.3 543.129 1848.28 543.129C1843.77 543.129 1840.24 541.834 1837.72 539.245C1835.19 536.657 1833.92 533.059 1833.92 528.453V499.643H1827.78V492.96H1833.92V484.065L1842.82 483.207V492.96H1855.64V499.643H1842.82V526.827C1842.82 533.24 1845.59 536.446 1851.13 536.446C1852.3 536.446 1853.73 536.25 1855.42 535.859V542ZM1904.09 540.42C1898.13 542.226 1893.03 543.129 1888.79 543.129C1881.53 543.129 1875.63 540.736 1871.09 535.949C1866.54 531.132 1864.27 524.901 1864.27 517.254C1864.27 509.819 1866.27 503.723 1870.27 498.966C1874.31 494.21 1879.45 491.831 1885.72 491.831C1891.65 491.831 1896.22 493.954 1899.44 498.198C1902.7 502.413 1904.32 508.404 1904.32 516.171L1904.28 518.88H1873.34C1874.64 530.53 1880.34 536.355 1890.46 536.355C1894.16 536.355 1898.71 535.362 1904.09 533.375V540.42ZM1873.75 512.197H1895.38C1895.38 503.075 1891.98 498.515 1885.17 498.515C1878.34 498.515 1874.53 503.075 1873.75 512.197ZM1919.72 542V470.698H1928.61V542H1919.72ZM1946.45 542V470.698H1955.35V542H1946.45ZM1973.18 542V492.96H1982.08V542H1973.18ZM1973.18 484.065V475.169H1982.08V484.065H1973.18ZM2000.1 558.301L2001.14 550.58C2006.28 553.018 2011.37 554.237 2016.4 554.237C2026.39 554.237 2031.39 548.924 2031.39 538.297V530.575C2029.85 533.827 2027.66 536.355 2024.8 538.162C2021.97 539.968 2018.81 540.871 2015.31 540.871C2009.38 540.871 2004.69 538.749 2001.23 534.504C1997.76 530.229 1996.03 524.449 1996.03 517.164C1996.03 509.698 1998 503.617 2001.95 498.921C2005.89 494.225 2010.99 491.877 2017.26 491.877C2022.74 491.877 2027.45 494.104 2031.39 498.56V492.96H2040.33V528.634C2040.33 536.31 2039.92 541.985 2039.11 545.658C2038.33 549.36 2036.84 552.386 2034.64 554.734C2030.76 558.858 2024.69 560.92 2016.44 560.92C2010.78 560.92 2005.34 560.047 2000.1 558.301ZM2031.39 525.021V504.656C2027.48 500.592 2023.22 498.56 2018.61 498.56C2014.52 498.56 2011.31 500.2 2008.99 503.482C2006.67 506.763 2005.52 511.309 2005.52 517.119C2005.52 527.776 2009.29 533.104 2016.85 533.104C2022 533.104 2026.84 530.41 2031.39 525.021ZM2093.57 540.42C2087.61 542.226 2082.51 543.129 2078.26 543.129C2071.01 543.129 2065.11 540.736 2060.56 535.949C2056.02 531.132 2053.74 524.901 2053.74 517.254C2053.74 509.819 2055.74 503.723 2059.75 498.966C2063.78 494.21 2068.93 491.831 2075.19 491.831C2081.12 491.831 2085.7 493.954 2088.92 498.198C2092.17 502.413 2093.8 508.404 2093.8 516.171L2093.75 518.88H2062.82C2064.11 530.53 2069.82 536.355 2079.93 536.355C2083.64 536.355 2088.18 535.362 2093.57 533.375V540.42ZM2063.23 512.197H2084.86C2084.86 503.075 2081.45 498.515 2074.65 498.515C2067.82 498.515 2064.01 503.075 2063.23 512.197ZM2109.19 542V492.96H2118.09V502.172C2122.79 495.308 2128.54 491.877 2135.34 491.877C2139.61 491.877 2143 493.231 2145.5 495.941C2148.03 498.62 2149.29 502.232 2149.29 506.778V542H2140.4V509.668C2140.4 506.026 2139.86 503.437 2138.77 501.901C2137.72 500.336 2135.96 499.553 2133.49 499.553C2128.04 499.553 2122.91 503.12 2118.09 510.255V542H2109.19ZM2200.68 540.51C2194.93 542.256 2189.96 543.129 2185.78 543.129C2179.16 543.129 2173.66 540.675 2169.3 535.768C2164.93 530.861 2162.75 524.675 2162.75 517.209C2162.75 509.232 2164.9 503.015 2169.21 498.56C2173.54 494.104 2179.58 491.877 2187.31 491.877C2191.14 491.877 2195.41 492.403 2200.14 493.457V500.908C2195.11 499.433 2191.02 498.695 2187.86 498.695C2183.28 498.695 2179.62 500.411 2176.88 503.843C2174.14 507.245 2172.77 511.79 2172.77 517.48C2172.77 522.989 2174.19 527.445 2177.02 530.846C2179.85 534.248 2183.55 535.949 2188.13 535.949C2192.19 535.949 2196.38 534.91 2200.68 532.833V540.51ZM2249.99 540.42C2244.03 542.226 2238.93 543.129 2234.68 543.129C2227.43 543.129 2221.53 540.736 2216.98 535.949C2212.44 531.132 2210.16 524.901 2210.16 517.254C2210.16 509.819 2212.17 503.723 2216.17 498.966C2220.2 494.21 2225.35 491.831 2231.61 491.831C2237.54 491.831 2242.12 493.954 2245.34 498.198C2248.59 502.413 2250.22 508.404 2250.22 516.171L2250.17 518.88H2219.24C2220.53 530.53 2226.24 536.355 2236.35 536.355C2240.06 536.355 2244.6 535.362 2249.99 533.375V540.42ZM2219.65 512.197H2241.28C2241.28 503.075 2237.87 498.515 2231.07 498.515C2224.24 498.515 2220.43 503.075 2219.65 512.197Z" fill="#555555"/>
<path d="M446.16 407.911L426.515 478.058L356.021 496.439L543 596.661L446.16 407.911Z" fill="#85ACDB"/>
<path fill-rule="evenodd" clip-rule="evenodd" d="M137.462 313.334L142.127 315.338C140.926 314.098 139.215 313.538 137.462 313.334ZM348.36 339.351L287.156 354.025L228.612 367.365C228.612 367.365 216.964 372.69 199.34 366.031C181.715 359.371 198.01 366.031 198.01 366.031L142.127 347.354L128.822 343.353C128.822 343.353 109.438 329.339 130.152 314.005C130.152 314.005 133.895 312.921 137.462 313.334L122.486 306.899L192.684 332.706C192.684 332.706 211.554 340.637 233.931 334.041L245.906 331.373L360.334 304.693L357.672 294.021C357.672 294.021 355.866 286.985 347.027 288.685L285.823 303.358L227.279 316.698C227.279 316.698 215.631 322.023 198.007 315.365C180.382 308.705 196.676 315.365 196.676 315.365L140.794 296.687L127.488 292.686C127.488 292.686 108.104 278.673 128.819 263.338C128.819 263.338 132.562 262.254 136.128 262.667L112.851 252.667C112.851 252.667 87.6856 278.305 112.851 303.358L113.827 303.717C110.886 306.946 90.7882 330.731 114.184 354.025L194.018 383.373C194.018 383.373 212.887 391.303 235.264 384.706L247.239 382.039L361.667 355.359L359.006 344.687C359.006 344.687 357.199 337.651 348.36 339.351ZM136.128 262.667L140.794 264.671C139.592 263.431 137.882 262.871 136.128 262.667ZM346.943 239.606C346.943 239.606 272.596 255.799 239.972 263.401C207.348 271.003 187.824 260.758 187.824 260.758L124.979 239.606C111.4 212.203 139.687 214.487 139.687 214.487L175.791 226.386C196.684 236.858 225.264 232.995 225.264 232.995L243.984 229.029L367 202.589L364.326 186.723L290.784 176.149C281.964 171.309 242.647 176.149 242.647 176.149L194.51 185.402L119.63 199.945C85.6562 224.167 114.282 252.826 114.282 252.826L135.676 262.079L183.814 277.945C213.396 292.177 233.287 283.231 233.287 283.231L362.988 254.147L361.651 246.215C359.68 236.631 346.943 239.606 346.943 239.606Z" fill="#ED7E1F"/>
<path fill-rule="evenodd" clip-rule="evenodd" d="M152.333 51.3334V127.333H392.333V446H309.667V522H468.333V51.3334H152.333ZM76.3334 51.3334H0.333374V522H235V446H76.3334V51.3334Z" fill="#85ACDB"/>
</svg>
